<svg xmlns="http://www.w3.org/2000/svg" width="564" height="318" viewBox="0 0 564 318"><defs><style>.cls-1{fill:none;stroke:#00685e;stroke-opacity:0;stroke-miterlimit:10;}.cls-2{fill:#fff;}</style></defs><title>Asset 1</title><g id="Layer_2" data-name="Layer 2"><g id="Layer_1-2" data-name="Layer 1"><rect class="cls-1" x="0.5" y="0.5" width="563" height="317"/><path class="cls-2" d="M325.2,188.75v-.38l-1.65-.59-1.2.59-1.17-.31v-29l1.06-1.24v-15l-4.84-6v-4.94l-3.75-9-.48-6.47-.45,6.53L309,131.94l.11,4.84-5,6v15l1.06,1.3,0,25.33-19.73-4.91v-.66l-3.88-1.3-2.1,1.23-37.63-8.52v1.62l37.6,7.94,1.92-1.17-.13,20.48-5.57-.24c-.83-2.65-4.61-13.06-15-16.84-9.52-3.47-16.42-.34-18.83,1v14.43l-3-.06v4l86.4.07v-.66l-1.44-.07-.14-12.47Zm-12.06-44.51a5.36,5.36,0,1,1-5.36,5.36A5.37,5.37,0,0,1,313.14,144.24Zm-31.52,34.33,3.44,1,0,.82,21.48,5,1.62-.24-.14,15-3-.1c-.17-1.38-1.48-9.35-9.17-12.1S285,190,285,190v9.32l-3.06-.14Zm23.1,21.48-18.49-.72,0-8.94s2.75-4.43,10-1.71C302.79,191.12,304.44,198.71,304.72,200.05ZM243.85,185A20.93,20.93,0,0,1,261,183.49c9.76,3.47,13.4,12.85,14.23,15.36l-31.35-1.24Zm68.36,15.4V193a4.34,4.34,0,0,1,4.57-.48c4.19,1.92,4.47,7.42,4.47,8.21Zm9.35.38c0-.58-.17-6.43-4.71-8.52-3.85-1.79-5.33.68-5.33.68v7.43l-3-.14-.1-15.05,3.19.75v.48l10.76,2.24,1.14-.31-.11,12.47Z"/></g></g></svg>
