<svg xmlns="http://www.w3.org/2000/svg" width="230" height="325" viewBox="0 0 230 325"><defs><style>.cls-1{fill:#fff;}.cls-2{fill:none;stroke:#00685e;stroke-opacity:0;stroke-miterlimit:10;}</style></defs><title>placeholder__side-card</title><g id="Layer_2" data-name="Layer 2"><g id="Layer_1-2" data-name="Layer 1"><path class="cls-1" d="M179.27,206.75v-.56l-2.45-.87-1.79.87-1.74-.46V162.58l1.58-1.84v-22.3l-7.21-8.84v-7.37l-5.57-13.34-.71-9.61-.67,9.71-5.52,13.24.15,7.21-7.46,8.9v22.29l1.58,2-.05,37.68L120.06,193v-1L114.28,190l-3.11,1.84-56-12.68v2.41l55.93,11.81,2.87-1.74-.21,30.47-8.28-.35c-1.23-3.94-6.85-19.43-22.29-25.06-14.17-5.16-24.44-.51-28,1.54v21.47l-4.45-.1v6l128.54.1v-1l-2.15-.1-.2-18.56Zm-18-66.21a8,8,0,1,1-8,8A8,8,0,0,1,161.32,140.54Zm-46.88,51.08,5.11,1.48,0,1.23,32,7.46,2.4-.35-.21,22.34-4.44-.15c-.26-2-2.2-13.91-13.66-18s-16.15,3-16.15,3v13.86l-4.55-.2Zm34.36,32-27.51-1.08,0-13.29s4.09-6.6,14.88-2.56C145.93,210.28,148.39,221.58,148.8,223.58ZM58.24,201.13a31.17,31.17,0,0,1,25.47-2.2c14.52,5.16,19.94,19.12,21.17,22.86L58.24,220ZM159.94,224V213.09a6.49,6.49,0,0,1,6.8-.71c6.24,2.86,6.65,11,6.65,12.22Zm13.91.56c0-.87-.25-9.56-7-12.68-5.73-2.66-7.93,1-7.93,1v11l-4.45-.2-.15-22.39,4.75,1.12v.72l16,3.32,1.69-.46-.16,18.56Z"/><rect class="cls-2" x="0.5" y="0.5" width="229" height="324"/></g></g></svg>
