<svg style="display:none;" xmlns="http://www.w3.org/2000/svg" xmlns:xlink="http://www.w3.org/1999/xlink"><symbol viewBox="0 0 512 512" id="android-download"><path d="M403.002 217.001C388.998 148.002 328.998 96 256 96c-57.998 0-107.998 32.998-132.998 81.001C63.002 183.002 16 233.998 16 296c0 65.996 53.999 120 120 120h260c55 0 100-45 100-100 0-52.998-40.996-96.001-92.998-98.999zM224 268v-76h64v76h68L256 368 156 268h68z"/></symbol><symbol viewBox="0 0 512 512" id="android-search"><path d="M337.509 305.372h-17.501l-6.571-5.486c20.791-25.232 33.922-57.054 33.922-93.257C347.358 127.632 283.896 64 205.135 64 127.452 64 64 127.632 64 206.629s63.452 142.628 142.225 142.628c35.011 0 67.831-13.167 92.991-34.008l6.561 5.487v17.551L415.18 448 448 415.086 337.509 305.372zm-131.284 0c-54.702 0-98.463-43.887-98.463-98.743 0-54.858 43.761-98.742 98.463-98.742 54.7 0 98.462 43.884 98.462 98.742 0 54.856-43.762 98.743-98.462 98.743z"/></symbol><symbol viewBox="0 0 512 512" id="chevron-down"><path d="M256 298.3l174.2-167.2c4.3-4.2 11.4-4.1 15.8.2l30.6 29.9c4.4 4.3 4.5 11.3.2 15.5L264.1 380.9c-2.2 2.2-5.2 3.2-8.1 3-3 .1-5.9-.9-8.1-3L35.2 176.7c-4.3-4.2-4.2-11.2.2-15.5L66 131.3c4.4-4.3 11.5-4.4 15.8-.2L256 298.3z"/></symbol><symbol viewBox="0 0 512 512" id="chevron-left"><path d="M213.7 256L380.9 81.9c4.2-4.3 4.1-11.4-.2-15.8l-29.9-30.6c-4.3-4.4-11.3-4.5-15.5-.2L131.1 247.9c-2.2 2.2-3.2 5.2-3 8.1-.1 3 .9 5.9 3 8.1l204.2 212.7c4.2 4.3 11.2 4.2 15.5-.2l29.9-30.6c4.3-4.4 4.4-11.5.2-15.8L213.7 256z"/></symbol><symbol viewBox="0 0 512 512" id="chevron-right"><path d="M298.3 256L131.1 81.9c-4.2-4.3-4.1-11.4.2-15.8l29.9-30.6c4.3-4.4 11.3-4.5 15.5-.2L380.9 248c2.2 2.2 3.2 5.2 3 8.1.1 3-.9 5.9-3 8.1L176.7 476.8c-4.2 4.3-11.2 4.2-15.5-.2L131.3 446c-4.3-4.4-4.4-11.5-.2-15.8L298.3 256z"/></symbol><symbol viewBox="0 0 512 512" id="close-round"><path d="M437.5 386.6L306.9 256l130.6-130.6c14.1-14.1 14.1-36.8 0-50.9-14.1-14.1-36.8-14.1-50.9 0L256 205.1 125.4 74.5c-14.1-14.1-36.8-14.1-50.9 0-14.1 14.1-14.1 36.8 0 50.9L205.1 256 74.5 386.6c-14.1 14.1-14.1 36.8 0 50.9 14.1 14.1 36.8 14.1 50.9 0L256 306.9l130.6 130.6c14.1 14.1 36.8 14.1 50.9 0 14-14.1 14-36.9 0-50.9z"/></symbol><symbol viewBox="0 0 512 512" id="email"><path d="M67 148.7c11 5.8 163.8 89.1 169.5 92.1 5.7 3 11.5 4.4 20.5 4.4s14.8-1.4 20.5-4.4c5.7-3 158.5-86.3 169.5-92.1 4.1-2.1 11-5.9 12.5-10.2 2.6-7.6-.2-10.5-11.3-10.5H65.8c-11.1 0-13.9 3-11.3 10.5 1.5 4.4 8.4 8.1 12.5 10.2z"/><path d="M455.7 153.2c-8.2 4.2-81.8 56.6-130.5 88.1l82.2 92.5c2 2 2.9 4.4 1.8 5.6-1.2 1.1-3.8.5-5.9-1.4l-98.6-83.2c-14.9 9.6-25.4 16.2-27.2 17.2-7.7 3.9-13.1 4.4-20.5 4.4s-12.8-.5-20.5-4.4c-1.9-1-12.3-7.6-27.2-17.2L110.7 338c-2 2-4.7 2.6-5.9 1.4-1.2-1.1-.3-3.6 1.7-5.6l82.1-92.5c-48.7-31.5-123.1-83.9-131.3-88.1-8.8-4.5-9.3.8-9.3 4.9v205c0 9.3 13.7 20.9 23.5 20.9h371c9.8 0 21.5-11.7 21.5-20.9v-205c0-4.2.6-9.4-8.3-4.9z"/></symbol><symbol viewBox="0 0 512 512" id="headphone"><path d="M447.4 238.2c-3.2-59.8-21.9-108.6-56-145.2l-.2-.2c-7.7-8.4-16.1-15.9-24.8-22.6-9-6.9-18.6-13-28.5-18.1-25.3-13.1-53-20-82.1-20-29 0-56.6 6.9-81.9 20-9.9 5.1-19.4 11.2-28.4 18.1-8.7 6.7-17 14.2-24.7 22.6l-.2.2c-34 36.6-52.7 85.5-55.9 145.2C61.9 288.9 68 368 77.7 400c20.3 67 40.4 80 72.1 80s58.2-26.4 58.2-58.9v-106c0-32.5-23.3-59-53.3-59-18 0-34 9.7-43.8 24.4 0 0-11.1-8.1-13.1-23-2.1-14.9-3.1-32.4 5.6-63 8.7-30.5 20.8-20.2 35.6-39 2.5-3.3 5.2-6.4 8-9.5 3.2-3.4 6.4-6.7 9.8-9.7 1.6-1.5 3.2-2.8 4.8-4.2 11-9.3 21-17 33.7-22.8 18.9-8.6 39.4-13.3 60.5-13.3 21 0 41.7 4.7 60.7 13.3 12.7 5.8 22.9 13.5 33.9 22.8 1.6 1.4 3.2 2.7 4.8 4.2 3.4 3 6.6 6.3 9.8 9.7 2.8 3.1 5.5 6.2 8 9.5 14.8 18.8 26.9 8.5 35.6 39 8.7 30.5 7.6 48.1 5.6 63-2.1 14.9-13.1 23-13.1 23-9.8-14.7-25.7-24.4-43.8-24.4-30 0-53.3 26.4-53.3 59v106.1c0 32.4 26.5 58.9 58.2 58.9 31.7 0 51.8-13 72.1-80 9.7-32.1 15.8-111.2 13.1-161.9z"/></symbol><symbol viewBox="0 0 512 512" id="ios-paper"><path d="M112 64v336H96V112H64v305.143C64 434.157 77.843 448 94.857 448h322.285C434.157 448 448 434.157 448 417.143V64H112zm48 48h128v16H160v-16zm0 160h192v16H160v-16zm240 96H160v-16h240v16zm0-160H160v-16h240v16z"/></symbol><symbol viewBox="0 0 512 512" id="ios-videocam"><path d="M303.7 128h-221C63.9 128 47 142.1 47 160.7v187.9c0 18.6 16.9 35.4 35.7 35.4h221c18.8 0 33.3-16.8 33.3-35.4V160.7c0-18.6-14.5-32.7-33.3-32.7zM367 213v85.6l98 53.4V160l-98 53z"/></symbol><symbol viewBox="0 0 512 512" id="social-facebook"><path d="M288 192v-38.1c0-17.2 3.8-25.9 30.5-25.9H352V64h-55.9c-68.5 0-91.1 31.4-91.1 85.3V192h-45v64h45v192h83V256h56.4l7.6-64h-64z"/></symbol><symbol viewBox="0 0 512 512" id="social-linkedin"><path d="M417.2 64H96.8C79.3 64 64 76.6 64 93.9V415c0 17.4 15.3 32.9 32.8 32.9h320.3c17.6 0 30.8-15.6 30.8-32.9V93.9C448 76.6 434.7 64 417.2 64zM183 384h-55V213h55v171zm-25.6-197h-.4c-17.6 0-29-13.1-29-29.5 0-16.7 11.7-29.5 29.7-29.5s29 12.7 29.4 29.5c0 16.4-11.4 29.5-29.7 29.5zM384 384h-55v-93.5c0-22.4-8-37.7-27.9-37.7-15.2 0-24.2 10.3-28.2 20.3-1.5 3.6-1.9 8.5-1.9 13.5V384h-55V213h55v23.8c8-11.4 20.5-27.8 49.6-27.8 36.1 0 63.4 23.8 63.4 75.1V384z"/></symbol><symbol viewBox="0 0 512 512" id="social-twitter"><path d="M492 109.5c-17.4 7.7-36 12.9-55.6 15.3 20-12 35.4-31 42.6-53.6-18.7 11.1-39.4 19.2-61.5 23.5C399.8 75.8 374.6 64 346.8 64c-53.5 0-96.8 43.4-96.8 96.9 0 7.6.8 15 2.5 22.1-80.5-4-151.9-42.6-199.6-101.3-8.3 14.3-13.1 31-13.1 48.7 0 33.6 17.2 63.3 43.2 80.7-16-.4-31-4.8-44-12.1v1.2c0 47 33.4 86.1 77.7 95-8.1 2.2-16.7 3.4-25.5 3.4-6.2 0-12.3-.6-18.2-1.8 12.3 38.5 48.1 66.5 90.5 67.3-33.1 26-74.9 41.5-120.3 41.5-7.8 0-15.5-.5-23.1-1.4C62.8 432 113.7 448 168.3 448 346.6 448 444 300.3 444 172.2c0-4.2-.1-8.4-.3-12.5C462.6 146 479 129 492 109.5z"/></symbol></svg>