<?xml version="1.0" standalone="no"?>
<!DOCTYPE svg PUBLIC "-//W3C//DTD SVG 20010904//EN"
 "http://www.w3.org/TR/2001/REC-SVG-20010904/DTD/svg10.dtd">
<svg version="1.0" xmlns="http://www.w3.org/2000/svg"
 width="1000.000000pt" height="1000.000000pt" viewBox="0 0 1000.000000 1000.000000"
 preserveAspectRatio="xMidYMid meet">
<metadata>
Created by potrace 1.11, written by Peter Selinger 2001-2013
</metadata>
<g transform="translate(0.000000,1000.000000) scale(0.100000,-0.100000)"
fill="#000000" stroke="none">
<path d="M8600 9875 c0 -8 4 -15 10 -15 5 0 7 7 4 15 -4 8 -8 15 -10 15 -2 0
-4 -7 -4 -15z"/>
<path d="M8599 9813 c-1 -21 -3 -47 -4 -58 -1 -11 -5 -74 -9 -140 -4 -66 -9
-136 -11 -155 -2 -19 -6 -84 -10 -145 -3 -60 -8 -121 -10 -135 -3 -14 -100
-252 -216 -530 l-211 -505 2 -205 c2 -113 4 -241 4 -285 2 -67 -1 -84 -18
-106 -12 -15 -133 -160 -271 -323 -137 -164 -259 -310 -270 -325 -20 -28 -20
-43 -18 -867 1 -461 2 -853 2 -869 1 -17 11 -41 24 -55 12 -14 39 -46 59 -71
l37 -45 -2 -1462 c-1 -906 -6 -1462 -11 -1462 -6 0 -183 43 -395 96 -212 52
-393 97 -401 99 -17 4 -1292 322 -1330 332 -14 3 -32 7 -40 9 -39 8 -100 27
-101 33 -1 3 -2 19 -3 35 -1 16 -8 33 -16 38 -8 5 -109 40 -224 78 l-210 70
-65 -38 c-35 -20 -77 -44 -92 -53 -15 -8 -39 -23 -54 -33 -27 -17 -57 -17
-135 4 -19 5 -46 11 -60 13 -14 3 -43 10 -65 15 -22 6 -83 20 -135 31 -52 11
-153 34 -225 51 -71 17 -143 33 -160 36 -16 3 -75 16 -130 29 -79 19 -454 105
-525 120 -27 6 -193 43 -310 70 -63 15 -126 29 -140 31 -34 6 -147 33 -190 44
-19 5 -147 34 -285 65 -137 30 -369 82 -515 116 -146 33 -274 62 -285 64 -31
7 -390 88 -615 140 -113 25 -214 48 -225 51 -20 4 -95 20 -240 54 -44 10 -96
22 -115 25 l-36 6 1 -90 c0 -49 3 -92 5 -95 4 -3 405 -91 500 -110 14 -2 241
-50 505 -106 264 -56 489 -103 500 -106 11 -2 31 -6 45 -9 34 -7 119 -25 150
-31 38 -8 492 -104 520 -110 14 -3 32 -7 40 -9 8 -2 137 -29 285 -60 149 -31
322 -68 385 -81 63 -13 124 -26 135 -29 11 -2 34 -7 50 -10 17 -3 38 -8 47
-11 10 -3 30 -7 45 -10 27 -5 163 -32 193 -39 25 -6 350 -75 445 -95 116 -24
209 -43 371 -78 l130 -28 111 67 111 66 -4 -776 c-5 -788 -11 -1499 -13 -1559
l-1 -33 -68 6 c-37 2 -134 7 -217 10 -179 6 -349 15 -352 19 -2 1 -17 43 -34
92 -107 311 -297 670 -491 928 -436 577 -983 921 -1678 1055 -130 25 -131 25
-335 46 -130 14 -452 2 -570 -21 -10 -2 -37 -6 -60 -9 -22 -4 -69 -13 -105
-21 -36 -9 -74 -17 -85 -20 -74 -14 -321 -105 -430 -158 l-130 -62 0 -835 0
-834 -173 1 -172 1 0 -234 0 -233 53 0 c28 -1 2278 -3 5000 -5 l4947 -3 0 39
c0 43 10 40 -120 43 l-45 1 -2 110 c0 61 -4 385 -8 722 l-6 611 82 -24 c46
-13 87 -24 91 -24 4 0 8 11 8 25 0 14 -5 25 -12 25 -6 0 -49 14 -95 31 l-84
31 -68 -34 -67 -33 -65 14 c-35 8 -66 16 -69 19 -3 2 -5 758 -5 1679 l0 1675
62 72 63 71 0 871 c0 818 -1 871 -18 890 -9 10 -35 42 -57 69 -22 28 -43 52
-46 55 -3 3 -52 64 -109 135 -58 72 -107 132 -110 135 -3 3 -55 65 -114 138
l-109 134 1 286 0 287 -90 215 c-50 118 -99 235 -108 260 -10 25 -65 158 -123
297 -59 138 -108 262 -111 275 -3 13 -8 66 -12 118 -3 52 -7 113 -9 135 -2 22
-6 87 -10 143 -3 57 -8 113 -10 124 -3 12 -5 49 -6 84 -2 68 -18 89 -20 27z
m197 -3138 c253 -85 426 -322 426 -584 0 -270 -179 -513 -437 -594 -99 -31
-261 -31 -360 0 -261 83 -437 318 -437 588 -1 83 1 99 22 175 57 210 237 379
460 431 101 24 225 18 326 -16z m-3739 -3971 c49 -14 133 -38 188 -53 l100
-28 3 -51 c2 -29 6 -52 10 -52 7 0 158 -35 557 -130 121 -28 230 -54 242 -56
12 -2 71 -16 130 -30 60 -14 119 -28 133 -30 14 -3 31 -7 37 -9 7 -2 102 -25
210 -50 109 -25 252 -59 318 -75 66 -16 131 -31 145 -33 14 -3 81 -19 150 -35
233 -56 528 -123 552 -125 12 -1 52 3 88 7 114 16 102 35 100 -164 -1 -96 -3
-346 -5 -555 -2 -209 -5 -515 -6 -680 -1 -165 -3 -305 -6 -311 -2 -7 -30 -9
-76 -7 -40 2 -113 5 -164 6 -51 1 -94 5 -97 7 -2 3 -7 21 -10 40 -48 306 -196
649 -375 870 -151 187 -329 328 -536 426 -77 36 -211 87 -265 100 -8 2 -40 10
-70 18 -140 38 -376 53 -505 31 -198 -32 -386 -126 -508 -254 l-57 -60 0 -541
0 -541 -147 7 c-82 4 -160 6 -175 5 -25 -1 -28 2 -29 31 0 49 -7 545 -13 1018
-13 928 -18 1257 -19 1293 -1 20 1 37 5 37 4 0 47 -12 95 -26z m-3099 -408
c48 -4 100 -9 115 -11 42 -7 144 -25 169 -29 52 -9 198 -49 268 -73 183 -63
284 -108 440 -196 92 -52 139 -83 239 -155 147 -105 360 -311 493 -475 72 -90
217 -303 272 -398 77 -136 184 -365 226 -484 10 -27 21 -58 25 -68 7 -16 -2
-17 -121 -12 -71 3 -190 7 -264 10 -74 3 -184 7 -245 10 -60 2 -173 7 -250 10
-77 3 -194 7 -260 10 -66 3 -185 8 -265 10 -80 3 -183 7 -230 10 -47 2 -157 7
-245 10 -88 3 -209 8 -270 10 -60 2 -180 7 -265 10 -167 6 -279 10 -515 21
-194 8 -270 11 -495 19 -102 4 -187 9 -190 12 -3 2 -5 331 -5 730 l0 725 70
36 c108 56 235 108 369 151 108 35 163 50 286 77 19 4 37 8 40 9 3 1 30 5 60
9 30 5 64 10 75 12 11 2 70 7 130 10 61 4 111 7 112 8 4 3 149 -2 231 -8z
m6307 -372 c154 -35 161 -38 163 -62 1 -14 4 -27 6 -29 2 -2 46 -13 97 -24 52
-10 139 -29 194 -40 55 -12 109 -23 120 -25 11 -2 83 -17 160 -33 77 -17 154
-32 170 -35 17 -3 39 -8 50 -10 64 -14 183 -39 200 -42 11 -2 73 -15 137 -28
116 -24 117 -24 178 -6 l60 18 1 -21 c1 -30 -2 -503 -6 -995 -2 -228 -6 -416
-8 -419 -6 -5 -198 -5 -204 1 -2 2 -6 39 -9 82 -2 43 -6 86 -9 94 -2 8 -7 31
-10 50 -10 60 -56 223 -77 270 -123 283 -311 459 -573 535 -142 42 -256 35
-366 -20 -47 -24 -118 -88 -120 -109 -1 -6 -2 -200 -3 -431 l-1 -420 -135 3
c-225 5 -205 1 -206 47 -1 22 -4 413 -8 869 l-6 828 23 -5 c12 -3 94 -22 182
-43z m-1960 -269 c137 -18 378 -95 493 -157 276 -151 487 -384 648 -715 35
-72 64 -137 64 -145 0 -8 4 -18 9 -23 12 -13 67 -189 90 -287 l19 -78 -117 5
c-64 3 -181 8 -261 11 -80 3 -190 7 -245 9 -55 2 -167 6 -250 9 -142 6 -273
11 -515 21 -58 3 -175 7 -260 10 -85 4 -202 8 -260 10 -58 3 -133 5 -167 5
l-63 0 2 508 c1 279 5 518 10 530 11 33 109 127 175 169 99 63 242 112 368
126 42 4 200 0 260 -8z m2617 -502 c71 -16 187 -75 257 -130 91 -72 179 -188
241 -318 33 -70 86 -240 96 -305 3 -19 7 -40 9 -47 2 -7 7 -51 11 -98 l7 -86
-99 5 c-55 4 -157 8 -229 11 -133 5 -285 12 -480 20 -60 3 -136 5 -167 6 -32
0 -61 5 -64 11 -4 6 -7 198 -7 426 1 469 -8 420 86 468 97 50 222 64 339 37z"/>
</g>
</svg>
